<?xml version="1.0" encoding="iso-8859-1"?>
<!-- Generator: Adobe Illustrator 19.0.0, SVG Export Plug-In . SVG Version: 6.00 Build 0)  -->
<svg version="1.1" id="Layer_1" xmlns="http://www.w3.org/2000/svg" xmlns:xlink="http://www.w3.org/1999/xlink" x="0px" y="0px"
	 viewBox="0 0 512 512" style="enable-background:new 0 0 512 512;" xml:space="preserve">
<polygon style="fill:#DCDCDC;" points="455.736,0 455.736,399.473 378.01,455.736 421.978,0 "/>
<polygon style="fill:#EEEEEE;" points="421.978,0 421.978,399.473 343.209,512 56.264,512 56.264,0 "/>
<polygon style="fill:#B9B9B9;" points="455.736,399.473 343.209,512 343.209,399.473 "/>
<g>
	<path style="fill:#4D4D4D;" d="M366.277,219.429H145.723c-4.662,0-8.44-3.779-8.44-8.44c0-4.661,3.778-8.44,8.44-8.44h220.554
		c4.662,0,8.44,3.779,8.44,8.44C374.716,215.65,370.939,219.429,366.277,219.429z"/>
	<path style="fill:#4D4D4D;" d="M366.277,174.418H145.723c-4.662,0-8.44-3.779-8.44-8.44s3.778-8.44,8.44-8.44h220.554
		c4.662,0,8.44,3.779,8.44,8.44S370.939,174.418,366.277,174.418z"/>
	<path style="fill:#4D4D4D;" d="M366.277,129.407H145.723c-4.662,0-8.44-3.779-8.44-8.44c0-4.661,3.778-8.44,8.44-8.44h220.554
		c4.662,0,8.44,3.779,8.44,8.44C374.716,125.628,370.939,129.407,366.277,129.407z"/>
	<path style="fill:#4D4D4D;" d="M366.277,264.44H145.723c-4.662,0-8.44-3.779-8.44-8.44c0-4.661,3.778-8.44,8.44-8.44h220.554
		c4.662,0,8.44,3.779,8.44,8.44C374.716,260.661,370.939,264.44,366.277,264.44z"/>
	<path style="fill:#4D4D4D;" d="M281.881,309.451H145.723c-4.662,0-8.44-3.779-8.44-8.44c0-4.661,3.778-8.44,8.44-8.44h136.158
		c4.662,0,8.44,3.779,8.44,8.44C290.321,305.672,286.543,309.451,281.881,309.451z"/>
</g>
<g>
</g>
<g>
</g>
<g>
</g>
<g>
</g>
<g>
</g>
<g>
</g>
<g>
</g>
<g>
</g>
<g>
</g>
<g>
</g>
<g>
</g>
<g>
</g>
<g>
</g>
<g>
</g>
<g>
</g>
</svg>
